<svg xmlns="http://www.w3.org/2000/svg" viewBox="0 0 188.743 188.743"><path fill="#6F381B" d="M164.243 99.766h-13.042l.689-14.462a6.001 6.001 0 0 0-5.993-6.285H13.904a6 6 0 0 0-5.993 6.285l2.664 55.884c.658 13.81 9.117 25.43 21.002 30.709H6a6 6 0 0 0 0 12h148.647a6 6 0 0 0 0-12h-26.422c9.634-4.28 17.01-12.727 19.81-23.131h16.208c13.509 0 24.5-10.991 24.5-24.5s-10.991-24.5-24.5-24.5zm-50.422 63.181h-67.84c-12.536 0-22.823-9.809-23.42-22.331l-2.364-49.599h119.407l-2.363 49.599c-.597 12.522-10.884 22.331-23.42 22.331zm50.422-26.181h-14.805l1.192-25.013c.089.004.177.013.267.013h13.346c6.893 0 12.5 5.607 12.5 12.5s-5.607 12.5-12.5 12.5zM62.27 69.184a5.999 5.999 0 0 0 8.218-2.112 5.999 5.999 0 0 0-2.112-8.218c-3.336-1.972-5.642-5.61-6.326-9.98-.712-4.55.477-9.082 3.178-12.121l.071-.082c.653-.762 1.306-1.511 1.953-2.254 5.55-6.374 11.29-12.963 12.938-22.553A6 6 0 1 0 68.364 9.83c-1.079 6.276-5.288 11.109-10.161 16.705-.657.754-1.319 1.515-1.981 2.287-5.031 5.688-7.284 13.872-6.027 21.905 1.238 7.926 5.64 14.653 12.075 18.457zM80.891 55.635c1.981 5.101 5.515 9.773 9.952 13.155a5.973 5.973 0 0 0 3.633 1.229 6 6 0 0 0 3.641-10.772c-2.664-2.031-4.866-4.93-6.04-7.955-2.339-6.023-.123-12.025 7.411-20.07 5.341-5.704 8.755-12.422 9.872-19.43a6 6 0 0 0-11.851-1.889c-.749 4.699-3.03 9.112-6.78 13.117-3.935 4.201-15.907 16.986-9.838 32.615z"/></svg>